<svg width="218" height="160" viewBox="0 0 218 160" fill="none" xmlns="http://www.w3.org/2000/svg">
<path d="M220 0.25H20C9.1 0.65 0.4 9.35 0 20.25V160.25C0.4 171.15 9.1 179.85 20 180.25H220C230.9 179.85 239.6 171.15 240 160.25V20.25C239.816 15.0043 237.65 10.0234 233.938 6.31185C230.227 2.60027 225.246 0.434054 220 0.25ZM220 160.25H20V20.25H220V160.25ZM140 140.25V127.75C140 111.15 106.6 102.75 90 102.75C73.4 102.75 40 111.15 40 127.75V140.25H140ZM90 40.25C83.3696 40.25 77.0107 42.8839 72.3223 47.5723C67.6339 52.2607 65 58.6196 65 65.25C65 68.5331 65.6466 71.784 66.903 74.8171C68.1594 77.8502 70.0009 80.6062 72.3223 82.9277C77.0107 87.6161 83.3696 90.25 90 90.25C93.2831 90.25 96.534 89.6034 99.5671 88.347C102.6 87.0906 105.356 85.2491 107.678 82.9277C109.999 80.6062 111.841 77.8502 113.097 74.8171C114.353 71.784 115 68.5331 115 65.25C115 61.967 114.353 58.716 113.097 55.6829C111.841 52.6498 109.999 49.8938 107.678 47.5723C105.356 45.2509 102.6 43.4094 99.5671 42.153C96.534 40.8966 93.2831 40.25 90 40.25ZM140 40.25V50.25H200V40.25H140ZM140 60.25V70.25H200V60.25H140ZM140 80.25V90.25H180V80.25H140Z" fill="url(#paint0_linear)"/>
<defs>
<linearGradient id="paint0_linear" x1="-5.36442e-06" y1="180.25" x2="228.545" y2="-13.2777" gradientUnits="userSpaceOnUse">
<stop offset="0.133333" stop-color="#00262F"/>
<stop offset="1" stop-color="#495B7C"/>
</linearGradient>
</defs>
</svg>
