<svg width="217" height="159" viewBox="0 0 217 159" fill="none" xmlns="http://www.w3.org/2000/svg">
<path d="M125.945 0.864086C132.16 -0.77645 138.995 -0.130172 144.986 3.22547C148.838 5.36314 151.97 8.44536 154.133 12.0744L228.752 138.595C232.083 144.262 232.729 150.6 231.114 156.392C230.252 159.434 228.793 162.273 226.821 164.744C224.849 167.215 222.404 169.268 219.63 170.784C215.852 172.872 211.552 174.015 207.152 174.015H57.913C50.9531 174.015 44.7141 171.281 40.2399 166.906C36.5058 163.311 34.0884 158.565 33.3761 153.43C32.6639 148.296 33.6981 143.071 36.3126 138.595L110.932 12.0744C114.258 6.50037 119.656 2.4699 125.945 0.864086ZM144.961 37.3287C144.961 34.0325 143.651 30.8714 141.321 28.5406C138.99 26.2098 135.829 24.9004 132.532 24.9004C129.236 24.9004 126.075 26.2098 123.744 28.5406C121.414 30.8714 120.104 34.0325 120.104 37.3287V86.9425C120.104 90.2387 121.414 93.3999 123.744 95.7306C126.075 98.0614 129.236 99.3708 132.532 99.3708C135.829 99.3708 138.99 98.0614 141.321 95.7306C143.651 93.3999 144.961 90.2387 144.961 86.9425V37.3287ZM132.532 161.562C137.477 161.562 142.219 159.598 145.715 156.102C149.211 152.606 151.175 147.864 151.175 142.92C151.175 137.975 149.211 133.234 145.715 129.737C142.219 126.241 137.477 124.277 132.532 124.277C127.588 124.277 122.846 126.241 119.35 129.737C115.854 133.234 113.89 137.975 113.89 142.92C113.89 147.864 115.854 152.606 119.35 156.102C122.846 159.598 127.588 161.562 132.532 161.562Z" fill="url(#paint0_linear)"/>
<path d="M5.01206 134.544C0.763012 131.965 -0.590696 126.43 1.98847 122.181L73.1242 4.98808C75.7034 0.739037 81.2388 -0.61467 85.4878 1.96449C89.7369 4.54366 91.0906 10.079 88.5114 14.3281L17.3756 131.521C14.7965 135.77 9.26111 137.124 5.01206 134.544Z" fill="url(#paint1_linear)"/>
<path d="M5.85776 71.4493C1.60871 68.8702 0.255006 63.3348 2.83417 59.0858L35.8501 4.69363C38.4293 0.444586 43.9646 -0.909132 48.2137 1.67003C52.4627 4.2492 53.8164 9.78456 51.2373 14.0336L18.2213 68.4257C15.6422 72.6748 10.1068 74.0285 5.85776 71.4493Z" fill="url(#paint2_linear)"/>
<path d="M4.6937 17.1055C0.444653 14.5264 -0.894365 8.96681 1.6848 4.71776C4.26396 0.468716 9.81401 -0.909194 14.0631 1.66997C18.3121 4.24914 19.6511 9.8087 17.072 14.0577C14.4928 18.3068 8.94275 19.6847 4.6937 17.1055Z" fill="url(#paint3_linear)"/>
<defs>
<linearGradient id="paint0_linear" x1="0.373042" y1="174.015" x2="221.251" y2="-12.6716" gradientUnits="userSpaceOnUse">
<stop offset="0.232383" stop-color="#00262F"/>
<stop offset="1" stop-color="#495B7C"/>
</linearGradient>
<linearGradient id="paint1_linear" x1="0.373042" y1="174.015" x2="221.251" y2="-12.6716" gradientUnits="userSpaceOnUse">
<stop offset="0.232383" stop-color="#00262F"/>
<stop offset="1" stop-color="#495B7C"/>
</linearGradient>
<linearGradient id="paint2_linear" x1="0.373042" y1="174.015" x2="221.251" y2="-12.6716" gradientUnits="userSpaceOnUse">
<stop offset="0.232383" stop-color="#00262F"/>
<stop offset="1" stop-color="#495B7C"/>
</linearGradient>
<linearGradient id="paint3_linear" x1="0.373042" y1="174.015" x2="221.251" y2="-12.6716" gradientUnits="userSpaceOnUse">
<stop offset="0.232383" stop-color="#00262F"/>
<stop offset="1" stop-color="#495B7C"/>
</linearGradient>
</defs>
</svg>
