<svg width="17" height="20" viewBox="0 0 17 20" fill="none" xmlns="http://www.w3.org/2000/svg">
<path d="M16.9424 14.6368L15.0948 19.4129C15.0392 19.5589 14.9444 19.6838 14.8227 19.7717C14.701 19.8596 14.5578 19.9065 14.4112 19.9065C14.2647 19.9065 14.1215 19.8596 13.9997 19.7717C13.878 19.6838 13.7833 19.5589 13.7276 19.4129L11.88 14.6368C11.8424 14.5401 11.8229 14.4364 11.8225 14.3316C11.8221 14.2267 11.8409 14.1228 11.8778 14.0258C11.9146 13.9288 11.9689 13.8406 12.0375 13.7661C12.106 13.6917 12.1875 13.6326 12.2773 13.592C12.367 13.5515 12.4633 13.5305 12.5607 13.5301C12.658 13.5296 12.7545 13.5499 12.8445 13.5896C12.9346 13.6293 13.0165 13.6878 13.0856 13.7616C13.1547 13.8354 13.2096 13.9232 13.2472 14.0199L14.4112 17.0348L15.5752 14.0199C15.6128 13.9232 15.6677 13.8354 15.7368 13.7616C15.8059 13.6878 15.8879 13.6293 15.9779 13.5896C16.068 13.5499 16.1645 13.5296 16.2618 13.5301C16.3591 13.5305 16.4554 13.5515 16.5452 13.592C16.635 13.6326 16.7165 13.6917 16.785 13.7661C16.8536 13.8406 16.9078 13.9288 16.9447 14.0258C16.9816 14.1228 17.0004 14.2267 17 14.3316C16.9996 14.4364 16.98 14.5401 16.9424 14.6368ZM2.77139 15.1244C3.06593 15.1275 3.34895 15.248 3.56586 15.4627C3.63746 15.5339 3.72156 15.5889 3.81321 15.6245C3.90486 15.6601 4.0022 15.6755 4.09949 15.67C4.19678 15.6644 4.29206 15.6379 4.37969 15.5921C4.46732 15.5462 4.54555 15.4819 4.60975 15.403C4.74201 15.2473 4.81144 15.0413 4.80278 14.8305C4.79412 14.6197 4.70807 14.4211 4.56356 14.2786C4.071 13.8022 3.43341 13.5367 2.77139 13.5323C1.24713 13.5323 0 14.9652 0 16.7164C0 18.4677 1.24713 19.9005 2.77139 19.9005C3.43341 19.8962 4.071 19.6307 4.56356 19.1542C4.70807 19.0117 4.79412 18.8132 4.80278 18.6023C4.81144 18.3915 4.74201 18.1856 4.60975 18.0299C4.54555 17.9509 4.46732 17.8866 4.37969 17.8408C4.29206 17.7949 4.19678 17.7684 4.09949 17.7629C4.0022 17.7573 3.90486 17.7728 3.81321 17.8084C3.72156 17.844 3.63746 17.899 3.56586 17.9702C3.34895 18.1848 3.06593 18.3053 2.77139 18.3085C2.06007 18.3085 1.47808 17.592 1.47808 16.7164C1.47808 15.8408 2.06007 15.1244 2.77139 15.1244ZM15.1503 7.16419H10.716C10.52 7.16419 10.3321 7.08032 10.1935 6.93104C10.0549 6.78176 9.97701 6.57929 9.97701 6.36817V1.59205H1.84759V10.3483C1.84759 10.5594 1.76973 10.7619 1.63113 10.9111C1.49254 11.0604 1.30456 11.1443 1.10856 11.1443C0.912552 11.1443 0.724575 11.0604 0.585978 10.9111C0.447382 10.7619 0.369519 10.5594 0.369519 10.3483V1.59205C0.369519 1.16982 0.525244 0.764875 0.802437 0.46631C1.07963 0.167745 1.45558 1.2826e-05 1.84759 1.2826e-05H10.716C10.9127 -0.00118116 11.1018 0.0810297 11.2426 0.228868L16.4066 5.801C16.4775 5.87427 16.5338 5.96237 16.5719 6.05991C16.61 6.15744 16.6292 6.26234 16.6283 6.36817V10.3483C16.6283 10.5594 16.5505 10.7619 16.4119 10.9111C16.2733 11.0604 16.0853 11.1443 15.8893 11.1443C15.6933 11.1443 15.5053 11.0604 15.3667 10.9111C15.2281 10.7619 15.1503 10.5594 15.1503 10.3483V7.16419ZM11.4551 5.57215H14.1064L11.4551 2.71643V5.57215ZM8.65598 15.9005C8.3696 15.8209 7.86151 15.6716 7.7599 15.5423V15.5224C7.7599 15.194 7.98161 15.0249 8.40655 15.0249C8.73666 15.0321 9.05766 15.1428 9.33035 15.3433H9.32111C9.45519 15.458 9.62104 15.521 9.79225 15.5224C9.98825 15.5224 10.1762 15.4385 10.3148 15.2892C10.4534 15.14 10.5313 14.9375 10.5313 14.7264C10.5331 14.6098 10.5099 14.4944 10.4634 14.3891C10.4169 14.2838 10.3485 14.1915 10.2634 14.1194C9.73035 13.6789 9.07839 13.4378 8.40655 13.4328C7.15943 13.4328 6.28182 14.2886 6.28182 15.5224C6.28182 16.7562 7.48276 17.2139 8.27722 17.4428C8.59131 17.5323 8.92388 17.6219 9.12712 17.7512C9.33035 17.8806 9.23797 17.8507 9.23797 17.9104C9.23797 17.9701 9.23797 18.408 8.40655 18.408C8.07645 18.4007 7.75544 18.2901 7.48276 18.0896H7.49199C7.35792 17.9749 7.19206 17.9118 7.02086 17.9104C6.82485 17.9104 6.63688 17.9943 6.49828 18.1436C6.35968 18.2929 6.28182 18.4954 6.28182 18.7065C6.28002 18.823 6.30326 18.9385 6.34973 19.0438C6.3962 19.1491 6.46465 19.2414 6.54972 19.3134C7.08276 19.7539 7.73472 19.995 8.40655 20C9.84768 20 10.716 19.2139 10.716 17.9104C10.716 16.607 9.42273 16.1194 8.65598 15.9005Z" fill="#8FCDCC" fill-opacity="0.7"/>
</svg>
