<svg width="168" height="42" viewBox="0 0 168 42" fill="none" xmlns="http://www.w3.org/2000/svg">
<path d="M137.989 9.33222C138.081 9.24085 138.133 9.11691 138.133 8.98765V1.4239C138.121 1.3064 138.066 1.19731 137.979 1.11693C137.892 1.03655 137.778 0.990342 137.659 0.986897H102.243C102.177 0.985759 102.112 0.9978 102.051 1.02232C101.99 1.04683 101.934 1.08333 101.887 1.1296C101.841 1.17587 101.804 1.23097 101.779 1.29164C101.755 1.35231 101.742 1.41731 101.744 1.48274V9.10532C101.744 9.23458 101.795 9.35852 101.888 9.44989C101.981 9.5449 102.109 9.59927 102.243 9.60116H114.178V41.4109C114.177 41.4764 114.189 41.5413 114.214 41.602C114.239 41.6627 114.276 41.7178 114.322 41.7641C114.369 41.8103 114.424 41.8468 114.486 41.8713C114.547 41.8959 114.612 41.9079 114.678 41.9068H123.725C124.237 41.8991 124.732 41.715 125.122 41.3857C125.359 41.164 125.542 40.8928 125.659 40.5919C125.777 40.2909 125.825 39.9678 125.8 39.646V9.48349H137.659C137.784 9.47524 137.902 9.42137 137.989 9.33222ZM74.9765 33.8808C74.9777 33.8154 74.9655 33.7504 74.9408 33.6897C74.9161 33.629 74.8793 33.5739 74.8327 33.5276C74.7861 33.4814 74.7305 33.4449 74.6694 33.4204C74.6082 33.3959 74.5427 33.3838 74.4768 33.3849H52.0466V24.4093H71.3596C71.4919 24.4071 71.6187 24.3562 71.7153 24.2664C71.8058 24.1706 71.8571 24.0448 71.8594 23.9135V16.3497C71.8549 16.2189 71.8038 16.0938 71.7153 15.9967C71.6167 15.9101 71.4912 15.8597 71.3596 15.8539H52.1059V9.59275H74.4344C74.5003 9.59337 74.5656 9.58108 74.6267 9.55656C74.6877 9.53204 74.7433 9.49579 74.7902 9.44989C74.8806 9.35403 74.932 9.22821 74.9342 9.09691V1.4071C74.9353 1.34168 74.9232 1.27668 74.8985 1.21601C74.8738 1.15533 74.837 1.10024 74.7904 1.05396C74.7437 1.00769 74.6882 0.971197 74.627 0.946681C74.5659 0.922166 74.5004 0.910124 74.4344 0.911262H40.4081C40.2778 0.911317 40.1529 0.962693 40.0608 1.05412C39.965 1.14722 39.9102 1.2741 39.9083 1.4071V37.2004C39.9177 37.8864 40.0852 38.561 40.3979 39.1729C40.7107 39.7847 41.1603 40.3174 41.7125 40.7302C42.6763 41.5015 43.8637 41.9463 45.1008 41.9992H72.6979C73.2874 41.9624 73.8424 41.711 74.2565 41.2933C74.4503 41.1196 74.6135 40.9151 74.7394 40.6882C74.7911 40.6048 74.8364 40.5177 74.8749 40.4276C74.9201 40.3331 74.9432 40.2297 74.9426 40.1251V33.8808H74.9765ZM110.553 33.9732C110.554 33.9078 110.542 33.8428 110.517 33.7821C110.493 33.7215 110.456 33.6664 110.409 33.6201C110.363 33.5738 110.307 33.5373 110.246 33.5128C110.185 33.4883 110.119 33.4763 110.053 33.4774H90.4692V1.44073C90.4699 1.37538 90.4575 1.31054 90.4327 1.24996C90.408 1.18939 90.3715 1.13426 90.3252 1.08774C90.2304 0.994218 90.1032 0.940121 89.9695 0.936474H79.2118C79.08 0.938637 78.9541 0.991576 78.8609 1.0841C78.7676 1.17663 78.7142 1.30149 78.7121 1.43232V37.0492C78.6855 37.7791 78.8327 38.5049 79.1418 39.1679C79.4509 39.8308 79.9131 40.4121 80.4909 40.8647C81.4027 41.5714 82.5191 41.9691 83.6758 41.9992H108.605C108.874 41.9718 109.135 41.8862 109.367 41.7482C109.6 41.6103 109.8 41.4234 109.952 41.2008C110.279 40.8028 110.479 40.3172 110.528 39.8057V33.9817L110.553 33.9732ZM27.7869 18.8457C23.3144 12.5678 18.5794 5.92013 17.5544 4.441C16.9909 3.64387 16.3278 2.92094 15.5808 2.28953C14.2067 1.14494 12.5316 0.413549 10.7528 0.181387C8.97391 -0.0507753 7.16521 0.225973 5.53949 0.979049C3.91376 1.73212 2.53865 2.93019 1.5759 4.43233C0.613163 5.93447 0.102834 7.67817 0.105003 9.45828V23.6781C0.105003 31.099 0.105003 39.0998 0.105003 41.4529C0.104377 41.5183 0.116791 41.5831 0.141503 41.6437C0.166216 41.7043 0.202752 41.7594 0.249014 41.8059C0.341108 41.8974 0.466033 41.9487 0.596312 41.9488H11.6081C11.7408 41.9482 11.8681 41.8971 11.9638 41.8059C12.0101 41.7594 12.0466 41.7043 12.0714 41.6437C12.0961 41.5831 12.1085 41.5183 12.1078 41.4529V16.627L23.8989 33.4354H16.2754C16.2095 33.4347 16.1442 33.4471 16.0831 33.4716C16.022 33.4961 15.9665 33.5323 15.9196 33.5782C15.8253 33.6723 15.7708 33.7986 15.7671 33.9312V41.495C15.769 41.628 15.8238 41.7548 15.9196 41.8479C15.9665 41.8938 16.022 41.9301 16.0831 41.9546C16.1442 41.9791 16.2095 41.9914 16.2754 41.9908H30.8109C32.0902 41.9887 33.3446 41.639 34.4378 40.9797C35.5311 40.3204 36.4214 39.3766 37.0124 38.2508C37.6033 37.125 37.8722 35.8601 37.7899 34.5934C37.7076 33.3268 37.2772 32.1066 36.5455 31.0654C36.5455 31.0654 32.234 25.1237 27.753 18.8542L27.7869 18.8457ZM158.581 0.14648C156.363 0.143694 154.216 0.91749 152.516 2.33157C151.769 2.96311 151.106 3.68602 150.543 4.48303C149.518 5.95376 144.783 12.6099 140.31 18.8794C135.838 25.1489 131.619 31.057 131.611 31.0654C130.879 32.1066 130.449 33.3268 130.367 34.5934C130.284 35.8601 130.553 37.125 131.144 38.2508C131.735 39.3766 132.625 40.3204 133.719 40.9797C134.812 41.639 136.066 41.9887 137.345 41.9908H151.889C151.955 41.992 152.021 41.9799 152.082 41.9554C152.143 41.9309 152.199 41.8944 152.245 41.8481C152.292 41.8018 152.329 41.7467 152.354 41.686C152.378 41.6254 152.39 41.5604 152.389 41.495V33.9312C152.389 33.802 152.337 33.678 152.245 33.5867C152.2 33.538 152.145 33.4994 152.084 33.4734C152.022 33.4473 151.956 33.4343 151.889 33.4354H144.266L156.057 16.627V41.4781C156.059 41.6112 156.114 41.738 156.209 41.8311C156.302 41.9226 156.426 41.9739 156.557 41.974H167.569C167.701 41.9718 167.828 41.9209 167.924 41.8311C167.971 41.7846 168.007 41.7295 168.032 41.6689C168.057 41.6083 168.069 41.5435 168.068 41.4781V9.45828C168.064 8.22818 167.815 7.01105 167.335 5.87669C166.856 4.74233 166.155 3.71308 165.274 2.84795C164.392 1.98283 163.347 1.29885 162.199 0.835269C161.05 0.371686 159.821 0.137623 158.581 0.14648Z" fill="#00A0E9"/>
</svg>
