<svg width="24" height="20" viewBox="0 0 24 20" fill="none" xmlns="http://www.w3.org/2000/svg">
<path d="M23.4297 7.16C23.1242 6.76533 22.6882 6.49235 22.1997 6.39C22.1361 6.36285 22.0686 6.34597 21.9997 6.34V5C22.0232 4.36092 21.7921 3.73865 21.357 3.26988C20.922 2.80112 20.3187 2.52422 19.6797 2.5H10.7597C10.6527 2.49916 10.547 2.47656 10.449 2.43358C10.351 2.3906 10.2628 2.32814 10.1897 2.25L9.43968 1.44L8.33968 0.250001C8.26722 0.171052 8.17913 0.108053 8.08099 0.0650115C7.98286 0.0219704 7.87684 -0.000169545 7.76968 9.77577e-07H2.31968C1.68063 0.024216 1.07733 0.301122 0.642314 0.769885C0.207303 1.23865 -0.0238354 1.86092 -0.00031941 2.5V17.5C-0.0177765 18.084 0.174239 18.6551 0.541033 19.1099C0.907826 19.5647 1.4252 19.8733 1.99968 19.98C2.10968 19.99 2.20968 20 2.31968 20H20.2697C20.826 19.9809 21.3572 19.7639 21.7678 19.3881C22.1784 19.0124 22.4414 18.5024 22.5097 17.95L23.9497 9.24C24.0242 8.87648 24.0162 8.50088 23.9262 8.14088C23.8362 7.78088 23.6665 7.44568 23.4297 7.16ZM21.7097 8.32C21.7462 8.32701 21.7809 8.34124 21.8118 8.36185C21.8427 8.38245 21.8692 8.40902 21.8897 8.44C21.9428 8.50457 21.9788 8.58143 21.9946 8.66354C22.0103 8.74564 22.0052 8.83038 21.9797 8.91L20.5797 17.34C20.5497 17.5249 20.4546 17.693 20.3116 17.814C20.1685 17.935 19.987 18.001 19.7997 18H5.29968C5.18487 18.0001 5.07142 17.9752 4.96722 17.927C4.86302 17.8788 4.77058 17.8085 4.69633 17.7209C4.62209 17.6333 4.56782 17.5306 4.53731 17.4199C4.50681 17.3092 4.50079 17.1932 4.51968 17.08L5.92968 8.7L5.93968 8.66C5.94401 8.58237 5.97229 8.50798 6.02065 8.44709C6.069 8.3862 6.13504 8.3418 6.20968 8.32H21.7097ZM9.88968 4.5H19.6797C19.7697 4.5 19.9997 4.65 19.9997 5V6.32H6.20968C5.65413 6.33428 5.12199 6.54674 4.70937 6.91901C4.29675 7.29129 4.03084 7.79884 3.95968 8.35L2.33968 18H2.31968C2.22968 18 1.99968 17.85 1.99968 17.5V2.5C1.99968 2.15 2.22968 2 2.31968 2H6.88968C6.99684 1.99983 7.10286 2.02197 7.20099 2.06501C7.29913 2.10805 7.38722 2.17105 7.45968 2.25L9.31968 4.25C9.39214 4.32895 9.48024 4.39195 9.57837 4.43499C9.6765 4.47803 9.78252 4.50017 9.88968 4.5Z" fill="#8FCDCC"/>
</svg>
