<svg width="108" height="88" viewBox="0 0 108 88" fill="none" xmlns="http://www.w3.org/2000/svg">
<path d="M53.9576 0L0 88H107.653L53.9576 0ZM64.2494 77.7553C61.8457 77.7524 59.4934 77.064 57.4729 75.7719L57.3289 75.8812C51.2301 80.0833 44.5722 82.781 38.4141 82.7978C38.0838 82.7978 37.7619 82.7978 37.44 82.7978C35.5117 82.7705 33.6086 82.3592 31.8436 81.5883C30.0786 80.8174 28.4877 79.7025 27.1652 78.31C25.1628 76.133 23.9807 73.3361 23.8193 70.3933C23.8193 70.1916 23.8193 69.9815 23.8193 69.763C23.904 62.2412 29.0795 54.1144 36.1694 47.5003C43.2593 40.8862 52.4584 35.9362 61.4711 35.8438H61.6066C63.4721 35.778 65.3321 36.0824 67.0775 36.739C68.8229 37.3956 70.4187 38.3913 71.7713 39.6677C72.9827 40.9283 73.9312 42.414 74.5621 44.0394C75.193 45.6649 75.4939 47.398 75.4475 49.1391C75.4198 51.8447 74.8436 54.517 73.7534 56.997C75.3572 58.8041 76.4014 61.0318 76.7609 63.413C77.1203 65.7942 76.7798 68.2277 75.7801 70.4217C74.7804 72.6157 73.164 74.4769 71.1248 75.7822C69.0856 77.0874 66.7101 77.7813 64.2833 77.7806L64.2494 77.7553ZM68.4254 42.9201C66.9515 41.4577 64.7576 40.4913 61.5642 40.4745H61.4711C54.2795 40.4745 45.8089 44.8614 39.3289 50.8872C32.8489 56.913 28.3934 64.5104 28.4781 69.7462C28.4781 69.8722 28.4781 70.0151 28.4781 70.1748C28.5982 72.0268 29.3477 73.7837 30.6042 75.1584C32.0358 76.7048 34.1619 77.9486 37.6348 78.1335H38.3802C42.9205 78.1335 48.6212 76.0409 53.9576 72.4691C52.3158 70.1975 51.4877 67.4459 51.6056 64.6531C51.7234 61.8602 52.7804 59.1869 54.6079 57.0594C56.4354 54.9319 58.9283 53.4728 61.6889 52.9147C64.4496 52.3566 67.3192 52.7316 69.84 53.98C70.4122 52.4077 70.7156 50.7517 70.7379 49.0803C70.7799 47.953 70.5973 46.8286 70.2005 45.7715C69.8036 44.7144 69.2004 43.7454 68.4254 42.9201Z" fill="#00A0E9"/>
</svg>
