<svg width="218" height="159" viewBox="0 0 218 159" fill="none" xmlns="http://www.w3.org/2000/svg">
<path d="M20.3636 20.5V143.5H203.636V20.5H20.3636ZM20.3636 0H203.636C209.037 0 214.217 2.15981 218.036 6.00431C221.855 9.84881 224 15.0631 224 20.5V143.5C224 148.932 221.862 154.16 217.993 157.952C214.225 161.848 209.033 164 203.636 164H132.364V184.5H152.727V205H71.2727V184.5H91.6364V164H20.3636C14.9673 164 9.77455 161.848 6.00727 157.952C2.13818 154.16 0 148.932 0 143.5V20.5C0 9.1225 9.06182 0 20.3636 0ZM100.189 71.0325C103.345 67.9575 107.622 66.1125 112 66.1125C116.378 66.215 120.655 67.9575 123.811 71.135C126.865 74.21 128.698 78.515 128.698 82.9225C128.698 87.4325 126.865 91.635 123.811 94.8125C120.655 97.99 116.378 99.7325 112 99.7325C107.622 99.7325 103.345 97.8875 100.189 94.8125C97.1345 91.635 95.3018 87.4325 95.3018 82.9225C95.3018 78.515 97.1345 74.21 100.189 71.0325ZM92.3491 102.5C94.8939 105.161 97.946 107.278 101.322 108.724C104.699 110.17 108.331 110.915 112 110.915C115.669 110.915 119.301 110.17 122.678 108.724C126.054 107.278 129.106 105.161 131.651 102.5C136.844 97.375 139.796 90.3025 139.796 82.9225C139.796 75.5425 136.844 68.3675 131.651 63.14C126.458 57.9125 119.331 54.94 112 54.94C104.669 54.94 97.5418 57.9125 92.3491 63.14C87.1564 68.3675 84.2036 75.5425 84.2036 82.9225C84.2036 90.3025 87.1564 97.375 92.3491 102.5ZM50.9091 82.9225C55.734 70.568 64.1417 59.9619 75.0377 52.4847C85.9337 45.0075 98.8133 41.0056 112 41C139.796 41 163.52 58.425 173.091 82.9225C168.3 95.3007 159.901 105.93 148.997 113.412C138.094 120.895 125.196 124.88 112 124.845C84.2036 124.845 60.48 107.625 50.9091 82.9225Z" fill="url(#paint0_linear)"/>
<defs>
<linearGradient id="paint0_linear" x1="-5.00679e-06" y1="205" x2="247.211" y2="33.4482" gradientUnits="userSpaceOnUse">
<stop offset="0.3" stop-color="#00262F"/>
<stop offset="1" stop-color="#495B7C"/>
</linearGradient>
</defs>
</svg>
