<svg width="218" height="160" viewBox="0 0 218 160" fill="none" xmlns="http://www.w3.org/2000/svg">
<path d="M75.1306 202.908H52.5914V225.453H75.1306V202.908Z" fill="url(#paint0_linear)"/>
<path d="M90.1567 78.9087H96.9867L104.841 71.2569C108.171 67.925 112.479 65.7464 117.135 65.0399C118.318 64.9695 119.504 64.9695 120.687 65.0399C124.361 65.0295 127.979 65.9459 131.205 67.7043L135.85 70.1638L137.352 65.1765C138.344 62.0029 140.023 59.087 142.27 56.6366H90.1567V78.9087Z" fill="url(#paint1_linear)"/>
<path d="M30.0522 202.908H7.51306V225.453H30.0522V202.908Z" fill="url(#paint2_linear)"/>
<path d="M67.6175 56.3633H45.0783V78.9087H67.6175V56.3633Z" fill="url(#paint3_linear)"/>
<path d="M67.6175 101.454H45.0783V123.999H67.6175V101.454Z" fill="url(#paint4_linear)"/>
<path d="M85.4439 176.81C80.8616 175.407 76.8434 172.584 73.9695 168.748C71.5588 165.569 70.07 161.787 69.6665 157.817H22.5392V22.5453H202.853V68.3192L204.287 67.5677C207.563 65.8037 211.221 64.8657 214.942 64.8349C216.125 64.7672 217.31 64.7672 218.493 64.8349C220.881 65.2327 223.188 66.0173 225.323 67.1578V22.5453C225.305 16.5833 222.934 10.8695 218.726 6.64726C214.518 2.42502 208.813 0.0359979 202.853 0H22.5392C16.5669 0.0180208 10.8445 2.39911 6.62147 6.62328C2.39846 10.8475 0.0180159 16.5715 0 22.5453V157.817C0.0180159 163.791 2.39846 169.515 6.62147 173.739C10.8445 177.964 16.5669 180.345 22.5392 180.363H89.4054L90.4982 178.313L85.4439 176.81Z" fill="url(#paint5_linear)"/>
<path d="M244.516 135.135L227.099 129.806C225.859 125.56 224.165 121.46 222.045 117.577L230.787 101.522C231.103 100.888 231.222 100.175 231.129 99.4727C230.992 98.7993 230.66 98.1813 230.173 97.6964L217.264 85.1257C216.779 84.6387 216.161 84.3059 215.488 84.1693C214.786 84.0763 214.073 84.1953 213.439 84.5108L197.32 93.1874C193.391 90.912 189.222 89.0789 184.889 87.7218L179.562 70.4371C179.365 69.7782 178.957 69.2022 178.401 68.7974C177.822 68.4527 177.163 68.2644 176.489 68.2509H159.072C158.385 68.2459 157.715 68.4614 157.159 68.8658C156.603 69.2705 156.196 69.8465 155.998 70.5054L150.671 87.7902C146.314 89.082 142.121 90.87 138.172 93.1191L122.326 84.4425C121.663 84.2081 120.94 84.2081 120.277 84.4425C119.604 84.5792 118.986 84.912 118.501 85.399L105.661 97.8331C105.172 98.3436 104.84 98.9839 104.705 99.6777C104.646 100.357 104.764 101.039 105.046 101.659L113.789 117.441C111.545 121.345 109.758 125.494 108.461 129.806L91.0446 135.135C90.3886 135.3 89.8097 135.686 89.4054 136.228C89.0012 136.784 88.7857 137.454 88.7907 138.141V155.426C88.7857 156.113 89.0012 156.784 89.4054 157.339C89.8259 157.879 90.396 158.283 91.0446 158.501L108.461 163.761C109.767 168.027 111.554 172.129 113.789 175.99L105.046 192.387C104.761 193.03 104.644 193.735 104.705 194.436C104.841 195.11 105.174 195.728 105.661 196.213L117.955 209.193C118.436 209.721 119.09 210.06 119.799 210.15C120.438 210.385 121.141 210.385 121.78 210.15L138.035 201.473C141.896 203.571 145.972 205.243 150.193 206.461L155.452 223.745C155.649 224.404 156.057 224.98 156.613 225.385C157.168 225.789 157.839 226.005 158.525 226H175.942C176.629 226.005 177.299 225.789 177.855 225.385C178.41 224.993 178.8 224.409 178.947 223.745L184.411 205.914C188.588 204.696 192.619 203.023 196.432 200.927L212.893 209.603C213.555 209.843 214.28 209.843 214.942 209.603C215.624 209.493 216.25 209.156 216.718 208.647L229.353 196.076C229.84 195.591 230.173 194.973 230.309 194.3C230.401 193.62 230.282 192.928 229.968 192.319L221.225 175.99C223.367 172.19 225.063 168.155 226.28 163.966L243.696 158.705C244.355 158.508 244.931 158.1 245.335 157.544C245.739 157.014 245.955 156.365 245.95 155.699V137.936C246.035 137.505 246.011 137.059 245.882 136.638C245.61 135.997 245.128 135.467 244.516 135.135ZM167.609 176.127C161.864 176.209 156.226 174.567 151.422 171.413C146.606 168.325 142.843 163.846 140.631 158.569C138.375 153.294 137.757 147.462 138.855 141.831C139.693 137.631 141.45 133.669 144 130.228C146.549 126.787 149.828 123.953 153.601 121.929C157.374 119.905 161.548 118.741 165.824 118.52C170.099 118.299 174.371 119.027 178.333 120.652C182.736 122.422 186.631 125.258 189.669 128.904C192.707 132.551 194.794 136.894 195.741 141.545C196.689 146.197 196.468 151.01 195.099 155.555C193.729 160.1 191.254 164.234 187.895 167.587C182.506 172.955 175.215 175.976 167.609 175.99V176.127Z" fill="url(#paint6_linear)"/>
<defs>
<linearGradient id="paint0_linear" x1="-5.49853e-06" y1="226" x2="272.168" y2="37.8535" gradientUnits="userSpaceOnUse">
<stop offset="0.198813" stop-color="#00262F"/>
<stop offset="0.970484" stop-color="#495B7C"/>
</linearGradient>
<linearGradient id="paint1_linear" x1="-5.49853e-06" y1="226" x2="272.168" y2="37.8535" gradientUnits="userSpaceOnUse">
<stop offset="0.198813" stop-color="#00262F"/>
<stop offset="0.970484" stop-color="#495B7C"/>
</linearGradient>
<linearGradient id="paint2_linear" x1="-5.49853e-06" y1="226" x2="272.168" y2="37.8535" gradientUnits="userSpaceOnUse">
<stop offset="0.198813" stop-color="#00262F"/>
<stop offset="0.970484" stop-color="#495B7C"/>
</linearGradient>
<linearGradient id="paint3_linear" x1="-5.49853e-06" y1="226" x2="272.168" y2="37.8535" gradientUnits="userSpaceOnUse">
<stop offset="0.198813" stop-color="#00262F"/>
<stop offset="0.970484" stop-color="#495B7C"/>
</linearGradient>
<linearGradient id="paint4_linear" x1="-5.49853e-06" y1="226" x2="272.168" y2="37.8535" gradientUnits="userSpaceOnUse">
<stop offset="0.198813" stop-color="#00262F"/>
<stop offset="0.970484" stop-color="#495B7C"/>
</linearGradient>
<linearGradient id="paint5_linear" x1="-5.49853e-06" y1="226" x2="272.168" y2="37.8535" gradientUnits="userSpaceOnUse">
<stop offset="0.198813" stop-color="#00262F"/>
<stop offset="0.970484" stop-color="#495B7C"/>
</linearGradient>
<linearGradient id="paint6_linear" x1="-5.49853e-06" y1="226" x2="272.168" y2="37.8535" gradientUnits="userSpaceOnUse">
<stop offset="0.198813" stop-color="#00262F"/>
<stop offset="0.970484" stop-color="#495B7C"/>
</linearGradient>
</defs>
</svg>
