<svg width="20" height="21" viewBox="0 0 20 21" fill="none" xmlns="http://www.w3.org/2000/svg">
<path fill-rule="evenodd" clip-rule="evenodd" d="M10 2.31818C5.48131 2.31818 1.81818 5.98131 1.81818 10.5C1.81818 15.0187 5.48131 18.6818 10 18.6818C14.5187 18.6818 18.1818 15.0187 18.1818 10.5C18.1818 5.98131 14.5187 2.31818 10 2.31818ZM0 10.5C0 4.97715 4.47715 0.5 10 0.5C15.5228 0.5 20 4.97715 20 10.5C20 16.0228 15.5228 20.5 10 20.5C4.47715 20.5 0 16.0228 0 10.5ZM10 4.13636C10.5021 4.13636 10.9091 4.54338 10.9091 5.04545V9.93815L14.0429 11.5051C14.492 11.7296 14.674 12.2757 14.4495 12.7247C14.2249 13.1738 13.6789 13.3558 13.2298 13.1313L9.59344 11.3131C9.28546 11.1591 9.09091 10.8443 9.09091 10.5V5.04545C9.09091 4.54338 9.49792 4.13636 10 4.13636Z" fill="#00262F"/>
</svg>
