<svg width="14" height="15" viewBox="0 0 14 15" fill="none" xmlns="http://www.w3.org/2000/svg">
<path d="M1.5409 2.74576C2.67705 1.41079 4.34576 0.551584 6.22751 0.501878C9.69275 0.416667 12.6822 3.24282 12.7816 6.70806C12.8261 8.32532 12.2706 9.81179 11.3213 10.9607L13.8218 13.4611C14.0594 13.6988 14.0594 14.0841 13.8218 14.3218C13.5841 14.5594 13.1988 14.5594 12.9611 14.3218L10.4607 11.8213C9.35544 12.7347 7.93762 13.2835 6.39083 13.2835C3.40844 13.2835 0.908923 11.2384 0.205933 8.47618C0.092318 8.03593 0.440263 7.60277 0.901822 7.60277C1.21426 7.60277 1.4983 7.8158 1.58351 8.11404C2.20129 10.5425 4.6014 12.261 7.29974 11.7781C9.2667 11.4302 10.8786 9.86086 11.2621 7.89391C11.8869 4.71981 9.45842 1.92206 6.39083 1.92206C4.84283 1.92206 3.46525 2.64635 2.54923 3.76119L3.64987 4.86893C3.8771 5.08906 3.72088 5.4725 3.40134 5.4725H0.355052C0.156226 5.4725 6.12809e-06 5.31628 6.12809e-06 5.11746V2.07118C-0.000405628 2.00108 0.019941 1.93243 0.058482 1.87388C0.0970229 1.81533 0.152033 1.7695 0.21658 1.74216C0.281127 1.71482 0.352322 1.7072 0.421192 1.72026C0.490062 1.73332 0.553525 1.76647 0.603584 1.81554L1.5409 2.74576Z" fill="#8FCDCC"/>
<path d="M6.39083 5.4725C7.17193 5.4725 7.81101 6.11159 7.81101 6.89268C7.81101 7.67378 7.17193 8.31286 6.39083 8.31286C5.60973 8.31286 4.97064 7.67378 4.97064 6.89268C4.97064 6.11159 5.60973 5.4725 6.39083 5.4725Z" fill="#8FCDCC"/>
</svg>
